<svg xmlns="http://www.w3.org/2000/svg" xmlns:xlink="http://www.w3.org/1999/xlink" contentStyleType="text/css" data-diagram-type="CLASS" height="922px" preserveAspectRatio="none" style="width:2526px;height:922px;background:#FFFFFF;" version="1.1" viewBox="0 0 2526 922" width="2526px" zoomAndPan="magnify"><title>Data Pipeline Flow</title><defs/><g><g class="title" data-source-line="1"><text fill="#000000" font-family="sans-serif" font-size="14" font-weight="bold" lengthAdjust="spacing" textLength="147.5059" x="1182.2471" y="22.9951">Data Pipeline Flow</text></g><!--cluster Metrics Gather Codes--><g class="cluster" data-entity="Metrics Gather Codes" data-source-line="3" data-uid="ent0002" id="cluster_Metrics Gather Codes"><path d="M8.5,43.2969 L179.4414,43.2969 A3.75,3.75 0 0 1 181.9414,45.7969 L188.9414,65.5938 L579.5,65.5938 A2.5,2.5 0 0 1 582,68.0938 L582,912.7669 A2.5,2.5 0 0 1 579.5,915.2669 L8.5,915.2669 A2.5,2.5 0 0 1 6,912.7669 L6,45.7969 A2.5,2.5 0 0 1 8.5,43.2969" fill="none" style="stroke:#000000;stroke-width:1.5;"/><line style="stroke:#000000;stroke-width:1.5;" x1="6" x2="188.9414" y1="65.5938" y2="65.5938"/><text fill="#000000" font-family="sans-serif" font-size="14" font-weight="bold" lengthAdjust="spacing" textLength="169.9414" x="10" y="58.292">Metrics Gather Codes</text></g><!--cluster Shiny App--><g class="cluster" data-entity="Shiny App" data-source-line="24" data-uid="ent0018" id="cluster_Shiny App"><path d="M608.5,51.4469 L689.1934,51.4469 A3.75,3.75 0 0 1 691.6934,53.9469 L698.6934,73.7437 L2516.5,73.7437 A2.5,2.5 0 0 1 2519,76.2437 L2519,644.1769 A2.5,2.5 0 0 1 2516.5,646.6769 L608.5,646.6769 A2.5,2.5 0 0 1 606,644.1769 L606,53.9469 A2.5,2.5 0 0 1 608.5,51.4469" fill="none" style="stroke:#000000;stroke-width:1.5;"/><line style="stroke:#000000;stroke-width:1.5;" x1="606" x2="698.6934" y1="73.7437" y2="73.7437"/><text fill="#000000" font-family="sans-serif" font-size="14" font-weight="bold" lengthAdjust="spacing" textLength="79.6934" x="610" y="66.442">Shiny App</text></g><!--cluster Sequencing Data Generated Page--><g class="cluster" data-entity="Sequencing Data Generated Page" data-source-line="37" data-uid="ent0029" id="cluster_Sequencing Data Generated Page"><path d="M1017.5,214.0369 L1284.6777,214.0369 A3.75,3.75 0 0 1 1287.1777,216.5369 L1294.1777,236.3338 L1387.5,236.3338 A2.5,2.5 0 0 1 1390,238.8338 L1390,620.1769 A2.5,2.5 0 0 1 1387.5,622.6769 L1017.5,622.6769 A2.5,2.5 0 0 1 1015,620.1769 L1015,216.5369 A2.5,2.5 0 0 1 1017.5,214.0369" fill="none" style="stroke:#000000;stroke-width:1.5;"/><line style="stroke:#000000;stroke-width:1.5;" x1="1015" x2="1294.1777" y1="236.3338" y2="236.3338"/><text fill="#000000" font-family="sans-serif" font-size="14" font-weight="bold" lengthAdjust="spacing" textLength="266.1777" x="1019" y="229.032">Sequencing Data Generated Page</text></g><!--cluster Login to QC Metrics Dashboard Page--><g class="cluster" data-entity="Login to QC Metrics Dashboard Page" data-source-line="48" data-uid="ent0038" id="cluster_Login to QC Metrics Dashboard Page"><path d="M1416.5,214.0369 L1706.7422,214.0369 A3.75,3.75 0 0 1 1709.2422,216.5369 L1716.2422,236.3338 L2202.5,236.3338 A2.5,2.5 0 0 1 2205,238.8338 L2205,620.1769 A2.5,2.5 0 0 1 2202.5,622.6769 L1416.5,622.6769 A2.5,2.5 0 0 1 1414,620.1769 L1414,216.5369 A2.5,2.5 0 0 1 1416.5,214.0369" fill="none" style="stroke:#000000;stroke-width:1.5;"/><line style="stroke:#000000;stroke-width:1.5;" x1="1414" x2="1716.2422" y1="236.3338" y2="236.3338"/><text fill="#000000" font-family="sans-serif" font-size="14" font-weight="bold" lengthAdjust="spacing" textLength="289.2422" x="1418" y="229.032">Login to QC Metrics Dashboard Page</text></g><!--cluster Admin Console--><g class="cluster" data-entity="Admin Console" data-source-line="67" data-uid="ent0055" id="cluster_Admin Console"><path d="M2231.5,205.8869 L2349.6885,205.8869 A3.75,3.75 0 0 1 2352.1885,208.3869 L2359.1885,228.1838 L2492.5,228.1838 A2.5,2.5 0 0 1 2495,230.6838 L2495,334.9869 A2.5,2.5 0 0 1 2492.5,337.4869 L2231.5,337.4869 A2.5,2.5 0 0 1 2229,334.9869 L2229,208.3869 A2.5,2.5 0 0 1 2231.5,205.8869" fill="none" style="stroke:#000000;stroke-width:1.5;"/><line style="stroke:#000000;stroke-width:1.5;" x1="2229" x2="2359.1885" y1="228.1838" y2="228.1838"/><text fill="#000000" font-family="sans-serif" font-size="14" font-weight="bold" lengthAdjust="spacing" textLength="117.1885" x="2233" y="220.882">Admin Console</text></g><!--class A1--><g class="entity" data-entity="A1" data-source-line="4" data-uid="ent0003" id="entity_A1"><rect fill="#F1F1F1" height="80.5938" rx="2.5" ry="2.5" style="stroke:#181818;stroke-width:0.5;" width="214.918" x="28.54" y="78.2969"/><ellipse cx="122.5068" cy="94.2969" fill="#ADD1B2" rx="11" ry="11" style="stroke:#181818;stroke-width:1;"/><path d="M125.4755,99.9375 Q124.8974,100.2344 124.2568,100.375 Q123.6162,100.5313 122.913,100.5313 Q120.413,100.5313 119.0849,98.8906 Q117.7724,97.2344 117.7724,94.1094 Q117.7724,90.9844 119.0849,89.3281 Q120.413,87.6719 122.913,87.6719 Q123.6162,87.6719 124.2568,87.8281 Q124.913,87.9844 125.4755,88.2813 L125.4755,91 Q124.8505,90.4219 124.2568,90.1563 Q123.663,89.875 123.038,89.875 Q121.6943,89.875 121.0068,90.9531 Q120.3193,92.0156 120.3193,94.1094 Q120.3193,96.2031 121.0068,97.2813 Q121.6943,98.3438 123.038,98.3438 Q123.663,98.3438 124.2568,98.0781 Q124.8505,97.7969 125.4755,97.2188 L125.4755,99.9375 Z " fill="#000000"/><text fill="#000000" font-family="sans-serif" font-size="14" lengthAdjust="spacing" textLength="18.4844" x="143.0068" y="99.1436">A1</text><line style="stroke:#181818;stroke-width:0.5;" x1="29.54" x2="242.458" y1="110.2969" y2="110.2969"/><line style="stroke:#181818;stroke-width:0.5;" x1="29.54" x2="242.458" y1="118.2969" y2="118.2969"/><text fill="#000000" font-family="sans-serif" font-size="14" lengthAdjust="spacing" textLength="149.5635" x="34.54" y="135.292">crawlerSeqMetrics.sh</text><text fill="#000000" font-family="sans-serif" font-size="14" lengthAdjust="spacing" textLength="202.918" x="34.54" y="151.5889">(must run as svc-gt-delivery)</text></g><!--class A2--><g class="entity" data-entity="A2" data-source-line="5" data-uid="ent0004" id="entity_A2"><rect fill="#F1F1F1" height="64.2969" rx="2.5" ry="2.5" style="stroke:#181818;stroke-width:0.5;" width="211.7256" x="30.14" y="249.0369"/><ellipse cx="122.5106" cy="265.0369" fill="#ADD1B2" rx="11" ry="11" style="stroke:#181818;stroke-width:1;"/><path d="M125.4794,270.6775 Q124.9012,270.9744 124.2606,271.115 Q123.62,271.2713 122.9169,271.2713 Q120.4169,271.2713 119.0887,269.6306 Q117.7762,267.9744 117.7762,264.8494 Q117.7762,261.7244 119.0887,260.0681 Q120.4169,258.4119 122.9169,258.4119 Q123.62,258.4119 124.2606,258.5681 Q124.9169,258.7244 125.4794,259.0213 L125.4794,261.74 Q124.8544,261.1619 124.2606,260.8963 Q123.6669,260.615 123.0419,260.615 Q121.6981,260.615 121.0106,261.6931 Q120.3231,262.7556 120.3231,264.8494 Q120.3231,266.9431 121.0106,268.0213 Q121.6981,269.0838 123.0419,269.0838 Q123.6669,269.0838 124.2606,268.8181 Q124.8544,268.5369 125.4794,267.9588 L125.4794,270.6775 Z " fill="#000000"/><text fill="#000000" font-family="sans-serif" font-size="14" lengthAdjust="spacing" textLength="18.4844" x="143.0106" y="269.8836">A2</text><line style="stroke:#181818;stroke-width:0.5;" x1="31.14" x2="240.8656" y1="281.0369" y2="281.0369"/><text fill="#000000" font-family="sans-serif" font-size="14" lengthAdjust="spacing" textLength="199.7256" x="36.14" y="298.032">gatherSequencingMetrics.sh</text><line style="stroke:#181818;stroke-width:0.5;" x1="31.14" x2="240.8656" y1="305.3338" y2="305.3338"/></g><!--class A3--><g class="entity" data-entity="A3" data-source-line="6" data-uid="ent0005" id="entity_A3"><rect fill="#F1F1F1" height="80.5938" rx="2.5" ry="2.5" style="stroke:#181818;stroke-width:0.5;" width="198.1357" x="273.93" y="384.4869"/><ellipse cx="359.5057" cy="400.4869" fill="#ADD1B2" rx="11" ry="11" style="stroke:#181818;stroke-width:1;"/><path d="M362.4744,406.1275 Q361.8963,406.4244 361.2557,406.565 Q360.6151,406.7213 359.9119,406.7213 Q357.4119,406.7213 356.0838,405.0806 Q354.7713,403.4244 354.7713,400.2994 Q354.7713,397.1744 356.0838,395.5181 Q357.4119,393.8619 359.9119,393.8619 Q360.6151,393.8619 361.2557,394.0181 Q361.9119,394.1744 362.4744,394.4713 L362.4744,397.19 Q361.8494,396.6119 361.2557,396.3463 Q360.6619,396.065 360.0369,396.065 Q358.6932,396.065 358.0057,397.1431 Q357.3182,398.2056 357.3182,400.2994 Q357.3182,402.3931 358.0057,403.4713 Q358.6932,404.5338 360.0369,404.5338 Q360.6619,404.5338 361.2557,404.2681 Q361.8494,403.9869 362.4744,403.4088 L362.4744,406.1275 Z " fill="#000000"/><text fill="#000000" font-family="sans-serif" font-size="14" lengthAdjust="spacing" textLength="18.4844" x="380.0057" y="405.3336">A3</text><line style="stroke:#181818;stroke-width:0.5;" x1="274.93" x2="471.0657" y1="416.4869" y2="416.4869"/><line style="stroke:#181818;stroke-width:0.5;" x1="274.93" x2="471.0657" y1="424.4869" y2="424.4869"/><text fill="#000000" font-family="sans-serif" font-size="14" lengthAdjust="spacing" textLength="186.1357" x="279.93" y="441.482">crawlerQCmetricsScript.sh</text><text fill="#000000" font-family="sans-serif" font-size="14" lengthAdjust="spacing" textLength="179.0742" x="279.93" y="457.7789">(run duckdb gather code)</text></g><!--class A4--><g class="entity" data-entity="A4" data-source-line="7" data-uid="ent0006" id="entity_A4"><rect fill="#F1F1F1" height="80.5938" rx="2.5" ry="2.5" style="stroke:#181818;stroke-width:0.5;" width="205.7373" x="33.13" y="384.4869"/><ellipse cx="122.5065" cy="400.4869" fill="#ADD1B2" rx="11" ry="11" style="stroke:#181818;stroke-width:1;"/><path d="M125.4752,406.1275 Q124.8971,406.4244 124.2565,406.565 Q123.6158,406.7213 122.9127,406.7213 Q120.4127,406.7213 119.0846,405.0806 Q117.7721,403.4244 117.7721,400.2994 Q117.7721,397.1744 119.0846,395.5181 Q120.4127,393.8619 122.9127,393.8619 Q123.6158,393.8619 124.2565,394.0181 Q124.9127,394.1744 125.4752,394.4713 L125.4752,397.19 Q124.8502,396.6119 124.2565,396.3463 Q123.6627,396.065 123.0377,396.065 Q121.694,396.065 121.0065,397.1431 Q120.319,398.2056 120.319,400.2994 Q120.319,402.3931 121.0065,403.4713 Q121.694,404.5338 123.0377,404.5338 Q123.6627,404.5338 124.2565,404.2681 Q124.8502,403.9869 125.4752,403.4088 L125.4752,406.1275 Z " fill="#000000"/><text fill="#000000" font-family="sans-serif" font-size="14" lengthAdjust="spacing" textLength="18.4844" x="143.0065" y="405.3336">A4</text><line style="stroke:#181818;stroke-width:0.5;" x1="34.13" x2="237.8673" y1="416.4869" y2="416.4869"/><line style="stroke:#181818;stroke-width:0.5;" x1="34.13" x2="237.8673" y1="424.4869" y2="424.4869"/><text fill="#000000" font-family="sans-serif" font-size="14" lengthAdjust="spacing" textLength="160.6377" x="39.13" y="441.482">SequencingMetrics.csv</text><text fill="#000000" font-family="sans-serif" font-size="14" lengthAdjust="spacing" textLength="193.7373" x="39.13" y="457.7789">(Imported to duckdb by A5)</text></g><!--class A5--><g class="entity" data-entity="A5" data-source-line="8" data-uid="ent0007" id="entity_A5"><rect fill="#F1F1F1" height="80.5938" rx="2.5" ry="2.5" style="stroke:#181818;stroke-width:0.5;" width="255.4277" x="22.29" y="526.0769"/><ellipse cx="136.5117" cy="542.0769" fill="#ADD1B2" rx="11" ry="11" style="stroke:#181818;stroke-width:1;"/><path d="M139.4804,547.7175 Q138.9023,548.0144 138.2617,548.155 Q137.6211,548.3113 136.9179,548.3113 Q134.4179,548.3113 133.0898,546.6706 Q131.7773,545.0144 131.7773,541.8894 Q131.7773,538.7644 133.0898,537.1081 Q134.4179,535.4519 136.9179,535.4519 Q137.6211,535.4519 138.2617,535.6081 Q138.9179,535.7644 139.4804,536.0613 L139.4804,538.78 Q138.8554,538.2019 138.2617,537.9363 Q137.6679,537.655 137.0429,537.655 Q135.6992,537.655 135.0117,538.7331 Q134.3242,539.7956 134.3242,541.8894 Q134.3242,543.9831 135.0117,545.0613 Q135.6992,546.1238 137.0429,546.1238 Q137.6679,546.1238 138.2617,545.8581 Q138.8554,545.5769 139.4804,544.9988 L139.4804,547.7175 Z " fill="#000000"/><text fill="#000000" font-family="sans-serif" font-size="14" lengthAdjust="spacing" textLength="18.4844" x="157.0117" y="546.9236">A5</text><line style="stroke:#181818;stroke-width:0.5;" x1="23.29" x2="276.7177" y1="558.0769" y2="558.0769"/><line style="stroke:#181818;stroke-width:0.5;" x1="23.29" x2="276.7177" y1="566.0769" y2="566.0769"/><text fill="#000000" font-family="sans-serif" font-size="14" lengthAdjust="spacing" textLength="222.8857" x="28.29" y="583.072">duckDBgatherwebQCmetrics.sh</text><text fill="#000000" font-family="sans-serif" font-size="14" lengthAdjust="spacing" textLength="243.4277" x="28.29" y="599.3689">(Gather and import all QC metrics)</text></g><!--class B2--><g class="entity" data-entity="B2" data-source-line="9" data-uid="ent0008" id="entity_B2"><rect fill="#F1F1F1" height="64.2969" rx="2.5" ry="2.5" style="stroke:#181818;stroke-width:0.5;" width="212.3135" x="185.84" y="693.6769"/><ellipse cx="278.4909" cy="709.6769" fill="#ADD1B2" rx="11" ry="11" style="stroke:#181818;stroke-width:1;"/><path d="M281.4596,715.3175 Q280.8815,715.6144 280.2409,715.755 Q279.6003,715.9113 278.8971,715.9113 Q276.3971,715.9113 275.069,714.2706 Q273.7565,712.6144 273.7565,709.4894 Q273.7565,706.3644 275.069,704.7081 Q276.3971,703.0519 278.8971,703.0519 Q279.6003,703.0519 280.2409,703.2081 Q280.8971,703.3644 281.4596,703.6613 L281.4596,706.38 Q280.8346,705.8019 280.2409,705.5363 Q279.6471,705.255 279.0221,705.255 Q277.6784,705.255 276.9909,706.3331 Q276.3034,707.3956 276.3034,709.4894 Q276.3034,711.5831 276.9909,712.6613 Q277.6784,713.7238 279.0221,713.7238 Q279.6471,713.7238 280.2409,713.4581 Q280.8346,713.1769 281.4596,712.5988 L281.4596,715.3175 Z " fill="#000000"/><text fill="#000000" font-family="sans-serif" font-size="14" lengthAdjust="spacing" textLength="18.5117" x="298.9909" y="714.5236">B2</text><line style="stroke:#181818;stroke-width:0.5;" x1="186.84" x2="397.1535" y1="725.6769" y2="725.6769"/><text fill="#000000" font-family="sans-serif" font-size="14" lengthAdjust="spacing" textLength="200.3135" x="191.84" y="742.672">GTdashboardMetrics.duckdb</text><line style="stroke:#181818;stroke-width:0.5;" x1="186.84" x2="397.1535" y1="749.9738" y2="749.9738"/></g><!--class B3--><g class="entity" data-entity="B3" data-source-line="10" data-uid="ent0009" id="entity_B3"><rect fill="#F1F1F1" height="80.5938" rx="2.5" ry="2.5" style="stroke:#181818;stroke-width:0.5;" width="253.1787" x="312.41" y="526.0769"/><ellipse cx="425.4935" cy="542.0769" fill="#ADD1B2" rx="11" ry="11" style="stroke:#181818;stroke-width:1;"/><path d="M428.4622,547.7175 Q427.8841,548.0144 427.2435,548.155 Q426.6029,548.3113 425.8997,548.3113 Q423.3997,548.3113 422.0716,546.6706 Q420.7591,545.0144 420.7591,541.8894 Q420.7591,538.7644 422.0716,537.1081 Q423.3997,535.4519 425.8997,535.4519 Q426.6029,535.4519 427.2435,535.6081 Q427.8997,535.7644 428.4622,536.0613 L428.4622,538.78 Q427.8372,538.2019 427.2435,537.9363 Q426.6497,537.655 426.0247,537.655 Q424.681,537.655 423.9935,538.7331 Q423.306,539.7956 423.306,541.8894 Q423.306,543.9831 423.9935,545.0613 Q424.681,546.1238 426.0247,546.1238 Q426.6497,546.1238 427.2435,545.8581 Q427.8372,545.5769 428.4622,544.9988 L428.4622,547.7175 Z " fill="#000000"/><text fill="#000000" font-family="sans-serif" font-size="14" lengthAdjust="spacing" textLength="18.5117" x="445.9935" y="546.9236">B3</text><line style="stroke:#181818;stroke-width:0.5;" x1="313.41" x2="564.5887" y1="558.0769" y2="558.0769"/><line style="stroke:#181818;stroke-width:0.5;" x1="313.41" x2="564.5887" y1="566.0769" y2="566.0769"/><text fill="#000000" font-family="sans-serif" font-size="14" lengthAdjust="spacing" textLength="147.0615" x="318.41" y="583.072">update_projstatus.sh</text><text fill="#000000" font-family="sans-serif" font-size="14" lengthAdjust="spacing" textLength="241.1787" x="318.41" y="599.3689">(Update to Delivered/Undelivered)</text></g><!--class C1--><g class="entity" data-entity="C1" data-source-line="11" data-uid="ent0010" id="entity_C1"><rect fill="#F1F1F1" height="64.2969" rx="2.5" ry="2.5" style="stroke:#181818;stroke-width:0.5;" width="183.7256" x="200.14" y="834.9669"/><ellipse cx="278.4115" cy="850.9669" fill="#ADD1B2" rx="11" ry="11" style="stroke:#181818;stroke-width:1;"/><path d="M281.3802,856.6075 Q280.8021,856.9044 280.1615,857.045 Q279.5209,857.2013 278.8177,857.2013 Q276.3177,857.2013 274.9896,855.5606 Q273.6771,853.9044 273.6771,850.7794 Q273.6771,847.6544 274.9896,845.9981 Q276.3177,844.3419 278.8177,844.3419 Q279.5209,844.3419 280.1615,844.4981 Q280.8177,844.6544 281.3802,844.9513 L281.3802,847.67 Q280.7552,847.0919 280.1615,846.8263 Q279.5677,846.545 278.9427,846.545 Q277.599,846.545 276.9115,847.6231 Q276.224,848.6856 276.224,850.7794 Q276.224,852.8731 276.9115,853.9513 Q277.599,855.0138 278.9427,855.0138 Q279.5677,855.0138 280.1615,854.7481 Q280.7552,854.4669 281.3802,853.8888 L281.3802,856.6075 Z " fill="#000000"/><text fill="#000000" font-family="sans-serif" font-size="14" lengthAdjust="spacing" textLength="18.6826" x="298.9115" y="855.8136">C1</text><line style="stroke:#181818;stroke-width:0.5;" x1="201.14" x2="382.8656" y1="866.9669" y2="866.9669"/><text fill="#000000" font-family="sans-serif" font-size="14" lengthAdjust="spacing" textLength="171.7256" x="206.14" y="883.962">ctgenometech03.jax.org</text><line style="stroke:#181818;stroke-width:0.5;" x1="201.14" x2="382.8656" y1="891.2638" y2="891.2638"/></g><!--class D1--><g class="entity" data-entity="D1" data-source-line="25" data-uid="ent0019" id="entity_D1"><rect fill="#F1F1F1" height="64.2969" rx="2.5" ry="2.5" style="stroke:#181818;stroke-width:0.5;" width="194.8545" x="900.57" y="86.4469"/><ellipse cx="983.9035" cy="102.4469" fill="#ADD1B2" rx="11" ry="11" style="stroke:#181818;stroke-width:1;"/><path d="M986.8722,108.0875 Q986.2941,108.3844 985.6535,108.525 Q985.0129,108.6812 984.3097,108.6812 Q981.8097,108.6812 980.4816,107.0406 Q979.1691,105.3844 979.1691,102.2594 Q979.1691,99.1344 980.4816,97.4781 Q981.8097,95.8219 984.3097,95.8219 Q985.0129,95.8219 985.6535,95.9781 Q986.3097,96.1344 986.8722,96.4312 L986.8722,99.15 Q986.2472,98.5719 985.6535,98.3062 Q985.0597,98.025 984.4347,98.025 Q983.091,98.025 982.4035,99.1031 Q981.716,100.1656 981.716,102.2594 Q981.716,104.3531 982.4035,105.4312 Q983.091,106.4937 984.4347,106.4937 Q985.0597,106.4937 985.6535,106.2281 Q986.2472,105.9469 986.8722,105.3687 L986.8722,108.0875 Z " fill="#000000"/><text fill="#000000" font-family="sans-serif" font-size="14" lengthAdjust="spacing" textLength="19.6875" x="1004.4035" y="107.2936">D1</text><line style="stroke:#181818;stroke-width:0.5;" x1="901.57" x2="1094.4245" y1="118.4469" y2="118.4469"/><line style="stroke:#181818;stroke-width:0.5;" x1="901.57" x2="1094.4245" y1="126.4469" y2="126.4469"/><text fill="#000000" font-family="sans-serif" font-size="14" lengthAdjust="spacing" textLength="182.8545" x="906.57" y="143.442">app.R --&gt; (server.R / UI.R)</text></g><!--class D2--><g class="entity" data-entity="D2" data-source-line="26" data-uid="ent0020" id="entity_D2"><rect fill="#F1F1F1" height="80.5938" rx="2.5" ry="2.5" style="stroke:#181818;stroke-width:0.5;" width="125.5039" x="622.25" y="240.8869"/><ellipse cx="670.9082" cy="256.8869" fill="#ADD1B2" rx="11" ry="11" style="stroke:#181818;stroke-width:1;"/><path d="M673.877,262.5275 Q673.2988,262.8244 672.6582,262.965 Q672.0176,263.1213 671.3145,263.1213 Q668.8145,263.1213 667.4863,261.4806 Q666.1738,259.8244 666.1738,256.6994 Q666.1738,253.5744 667.4863,251.9181 Q668.8145,250.2619 671.3145,250.2619 Q672.0176,250.2619 672.6582,250.4181 Q673.3145,250.5744 673.877,250.8713 L673.877,253.59 Q673.252,253.0119 672.6582,252.7463 Q672.0645,252.465 671.4395,252.465 Q670.0957,252.465 669.4082,253.5431 Q668.7207,254.6056 668.7207,256.6994 Q668.7207,258.7931 669.4082,259.8713 Q670.0957,260.9338 671.4395,260.9338 Q672.0645,260.9338 672.6582,260.6681 Q673.252,260.3869 673.877,259.8088 L673.877,262.5275 Z " fill="#000000"/><text fill="#000000" font-family="sans-serif" font-size="14" lengthAdjust="spacing" textLength="19.6875" x="691.4082" y="261.7336">D2</text><line style="stroke:#181818;stroke-width:0.5;" x1="623.25" x2="746.7539" y1="272.8869" y2="272.8869"/><text fill="#000000" font-family="sans-serif" font-size="14" lengthAdjust="spacing" textLength="113.5039" x="628.25" y="289.882">1. configPaths.R</text><text fill="#000000" font-family="sans-serif" font-size="14" lengthAdjust="spacing" textLength="92.4424" x="628.25" y="306.1789">2. inputFile.R</text><line style="stroke:#181818;stroke-width:0.5;" x1="623.25" x2="746.7539" y1="313.4806" y2="313.4806"/></g><!--class D3--><g class="entity" data-entity="D3" data-source-line="27" data-uid="ent0021" id="entity_D3"><rect fill="#F1F1F1" height="64.2969" rx="2.5" ry="2.5" style="stroke:#181818;stroke-width:0.5;" width="86.6416" x="782.68" y="249.0369"/><ellipse cx="813.4093" cy="265.0369" fill="#ADD1B2" rx="11" ry="11" style="stroke:#181818;stroke-width:1;"/><path d="M816.3781,270.6775 Q815.8,270.9744 815.1593,271.115 Q814.5187,271.2713 813.8156,271.2713 Q811.3156,271.2713 809.9875,269.6306 Q808.675,267.9744 808.675,264.8494 Q808.675,261.7244 809.9875,260.0681 Q811.3156,258.4119 813.8156,258.4119 Q814.5187,258.4119 815.1593,258.5681 Q815.8156,258.7244 816.3781,259.0213 L816.3781,261.74 Q815.7531,261.1619 815.1593,260.8963 Q814.5656,260.615 813.9406,260.615 Q812.5968,260.615 811.9093,261.6931 Q811.2218,262.7556 811.2218,264.8494 Q811.2218,266.9431 811.9093,268.0213 Q812.5968,269.0838 813.9406,269.0838 Q814.5656,269.0838 815.1593,268.8181 Q815.7531,268.5369 816.3781,267.9588 L816.3781,270.6775 Z " fill="#000000"/><text fill="#000000" font-family="sans-serif" font-size="14" lengthAdjust="spacing" textLength="19.6875" x="830.9048" y="269.8836">D3</text><line style="stroke:#181818;stroke-width:0.5;" x1="783.68" x2="868.3216" y1="281.0369" y2="281.0369"/><text fill="#000000" font-family="sans-serif" font-size="14" lengthAdjust="spacing" textLength="74.6416" x="788.68" y="298.032">Libraries.R</text><line style="stroke:#181818;stroke-width:0.5;" x1="783.68" x2="868.3216" y1="305.3338" y2="305.3338"/></g><!--class D4--><g class="entity" data-entity="D4" data-source-line="28" data-uid="ent0022" id="entity_D4"><rect fill="#F1F1F1" height="64.2969" rx="2.5" ry="2.5" style="stroke:#181818;stroke-width:0.5;" width="57.9922" x="904" y="249.0369"/><ellipse cx="921.8371" cy="265.0369" fill="#ADD1B2" rx="11" ry="11" style="stroke:#181818;stroke-width:1;"/><path d="M924.8059,270.6775 Q924.2277,270.9744 923.5871,271.115 Q922.9465,271.2713 922.2434,271.2713 Q919.7434,271.2713 918.4152,269.6306 Q917.1027,267.9744 917.1027,264.8494 Q917.1027,261.7244 918.4152,260.0681 Q919.7434,258.4119 922.2434,258.4119 Q922.9465,258.4119 923.5871,258.5681 Q924.2434,258.7244 924.8059,259.0213 L924.8059,261.74 Q924.1809,261.1619 923.5871,260.8963 Q922.9934,260.615 922.3684,260.615 Q921.0246,260.615 920.3371,261.6931 Q919.6496,262.7556 919.6496,264.8494 Q919.6496,266.9431 920.3371,268.0213 Q921.0246,269.0838 922.3684,269.0838 Q922.9934,269.0838 923.5871,268.8181 Q924.1809,268.5369 924.8059,267.9588 L924.8059,270.6775 Z " fill="#000000"/><text fill="#000000" font-family="sans-serif" font-size="14" lengthAdjust="spacing" textLength="19.6875" x="936.4676" y="269.8836">D4</text><line style="stroke:#181818;stroke-width:0.5;" x1="905" x2="960.9922" y1="281.0369" y2="281.0369"/><text fill="#000000" font-family="sans-serif" font-size="14" lengthAdjust="spacing" textLength="45.9922" x="910" y="298.032">auth.R</text><line style="stroke:#181818;stroke-width:0.5;" x1="905" x2="960.9922" y1="305.3338" y2="305.3338"/></g><!--class D5--><g class="entity" data-entity="D5" data-source-line="29" data-uid="ent0023" id="entity_D5"><rect fill="#F1F1F1" height="80.5938" rx="2.5" ry="2.5" style="stroke:#181818;stroke-width:0.5;" width="241.4756" x="730.26" y="384.4869"/><ellipse cx="836.904" cy="400.4869" fill="#ADD1B2" rx="11" ry="11" style="stroke:#181818;stroke-width:1;"/><path d="M839.8728,406.1275 Q839.2947,406.4244 838.654,406.565 Q838.0134,406.7213 837.3103,406.7213 Q834.8103,406.7213 833.4822,405.0806 Q832.1697,403.4244 832.1697,400.2994 Q832.1697,397.1744 833.4822,395.5181 Q834.8103,393.8619 837.3103,393.8619 Q838.0134,393.8619 838.654,394.0181 Q839.3103,394.1744 839.8728,394.4713 L839.8728,397.19 Q839.2478,396.6119 838.654,396.3463 Q838.0603,396.065 837.4353,396.065 Q836.0915,396.065 835.404,397.1431 Q834.7165,398.2056 834.7165,400.2994 Q834.7165,402.3931 835.404,403.4713 Q836.0915,404.5338 837.4353,404.5338 Q838.0603,404.5338 838.654,404.2681 Q839.2478,403.9869 839.8728,403.4088 L839.8728,406.1275 Z " fill="#000000"/><text fill="#000000" font-family="sans-serif" font-size="14" lengthAdjust="spacing" textLength="19.6875" x="857.404" y="405.3336">D5</text><line style="stroke:#181818;stroke-width:0.5;" x1="731.26" x2="970.7356" y1="416.4869" y2="416.4869"/><line style="stroke:#181818;stroke-width:0.5;" x1="731.26" x2="970.7356" y1="424.4869" y2="424.4869"/><line style="stroke:#181818;stroke-width:1;" x1="736.26" x2="828.5964" y1="436.6353" y2="436.6353"/><text fill="#000000" font-family="sans-serif" font-size="14" lengthAdjust="spacing" textLength="44.8027" x="828.5964" y="440.982">&gt;log&lt;</text><line style="stroke:#181818;stroke-width:1;" x1="873.3992" x2="965.7356" y1="436.6353" y2="436.6353"/><text fill="#000000" font-family="sans-serif" font-size="14" lengthAdjust="spacing" textLength="229.4756" x="736.26" y="457.7789">(Relevant debugs to Logs folder)</text></g><!--class E1--><g class="entity" data-entity="E1" data-source-line="38" data-uid="ent0030" id="entity_E1"><rect fill="#F1F1F1" height="64.2969" rx="2.5" ry="2.5" style="stroke:#181818;stroke-width:0.5;" width="109.1729" x="1051.41" y="249.0369"/><ellipse cx="1093.149" cy="265.0369" fill="#ADD1B2" rx="11" ry="11" style="stroke:#181818;stroke-width:1;"/><path d="M1096.1177,270.6775 Q1095.5396,270.9744 1094.899,271.115 Q1094.2583,271.2713 1093.5552,271.2713 Q1091.0552,271.2713 1089.7271,269.6306 Q1088.4146,267.9744 1088.4146,264.8494 Q1088.4146,261.7244 1089.7271,260.0681 Q1091.0552,258.4119 1093.5552,258.4119 Q1094.2583,258.4119 1094.899,258.5681 Q1095.5552,258.7244 1096.1177,259.0213 L1096.1177,261.74 Q1095.4927,261.1619 1094.899,260.8963 Q1094.3052,260.615 1093.6802,260.615 Q1092.3365,260.615 1091.649,261.6931 Q1090.9615,262.7556 1090.9615,264.8494 Q1090.9615,266.9431 1091.649,268.0213 Q1092.3365,269.0838 1093.6802,269.0838 Q1094.3052,269.0838 1094.899,268.8181 Q1095.4927,268.5369 1096.1177,267.9588 L1096.1177,270.6775 Z " fill="#000000"/><text fill="#000000" font-family="sans-serif" font-size="14" lengthAdjust="spacing" textLength="17.7529" x="1113.091" y="269.8836">E1</text><line style="stroke:#181818;stroke-width:0.5;" x1="1052.41" x2="1159.5829" y1="281.0369" y2="281.0369"/><text fill="#000000" font-family="sans-serif" font-size="14" lengthAdjust="spacing" textLength="97.1729" x="1057.41" y="298.032">Page Modules</text><line style="stroke:#181818;stroke-width:0.5;" x1="1052.41" x2="1159.5829" y1="305.3338" y2="305.3338"/></g><!--class E2--><g class="entity" data-entity="E2" data-source-line="39" data-uid="ent0031" id="entity_E2"><rect fill="#F1F1F1" height="80.5938" rx="2.5" ry="2.5" style="stroke:#181818;stroke-width:0.5;" width="150.4141" x="1030.79" y="384.4869"/><ellipse cx="1092.8706" cy="400.4869" fill="#ADD1B2" rx="11" ry="11" style="stroke:#181818;stroke-width:1;"/><path d="M1095.8393,406.1275 Q1095.2612,406.4244 1094.6206,406.565 Q1093.9799,406.7213 1093.2768,406.7213 Q1090.7768,406.7213 1089.4487,405.0806 Q1088.1362,403.4244 1088.1362,400.2994 Q1088.1362,397.1744 1089.4487,395.5181 Q1090.7768,393.8619 1093.2768,393.8619 Q1093.9799,393.8619 1094.6206,394.0181 Q1095.2768,394.1744 1095.8393,394.4713 L1095.8393,397.19 Q1095.2143,396.6119 1094.6206,396.3463 Q1094.0268,396.065 1093.4018,396.065 Q1092.0581,396.065 1091.3706,397.1431 Q1090.6831,398.2056 1090.6831,400.2994 Q1090.6831,402.3931 1091.3706,403.4713 Q1092.0581,404.5338 1093.4018,404.5338 Q1094.0268,404.5338 1094.6206,404.2681 Q1095.2143,403.9869 1095.8393,403.4088 L1095.8393,406.1275 Z " fill="#000000"/><text fill="#000000" font-family="sans-serif" font-size="14" lengthAdjust="spacing" textLength="17.7529" x="1113.3706" y="405.3336">E2</text><line style="stroke:#181818;stroke-width:0.5;" x1="1031.79" x2="1180.2041" y1="416.4869" y2="416.4869"/><line style="stroke:#181818;stroke-width:0.5;" x1="1031.79" x2="1180.2041" y1="424.4869" y2="424.4869"/><line style="stroke:#181818;stroke-width:1;" x1="1036.79" x2="1036.79" y1="436.6353" y2="436.6353"/><text fill="#000000" font-family="sans-serif" font-size="14" lengthAdjust="spacing" textLength="138.4141" x="1036.79" y="440.982">&gt;landingPageUI.R&lt;</text><line style="stroke:#181818;stroke-width:1;" x1="1175.2041" x2="1175.2041" y1="436.6353" y2="436.6353"/><text fill="#000000" font-family="sans-serif" font-size="14" lengthAdjust="spacing" textLength="102.6963" x="1036.79" y="457.7789">(called in UI.R)</text></g><!--class E3--><g class="entity" data-entity="E3" data-source-line="40" data-uid="ent0032" id="entity_E3"><rect fill="#F1F1F1" height="80.5938" rx="2.5" ry="2.5" style="stroke:#181818;stroke-width:0.5;" width="158.4873" x="1215.76" y="384.4869"/><ellipse cx="1281.8772" cy="400.4869" fill="#ADD1B2" rx="11" ry="11" style="stroke:#181818;stroke-width:1;"/><path d="M1284.8459,406.1275 Q1284.2678,406.4244 1283.6272,406.565 Q1282.9866,406.7213 1282.2834,406.7213 Q1279.7834,406.7213 1278.4553,405.0806 Q1277.1428,403.4244 1277.1428,400.2994 Q1277.1428,397.1744 1278.4553,395.5181 Q1279.7834,393.8619 1282.2834,393.8619 Q1282.9866,393.8619 1283.6272,394.0181 Q1284.2834,394.1744 1284.8459,394.4713 L1284.8459,397.19 Q1284.2209,396.6119 1283.6272,396.3463 Q1283.0334,396.065 1282.4084,396.065 Q1281.0647,396.065 1280.3772,397.1431 Q1279.6897,398.2056 1279.6897,400.2994 Q1279.6897,402.3931 1280.3772,403.4713 Q1281.0647,404.5338 1282.4084,404.5338 Q1283.0334,404.5338 1283.6272,404.2681 Q1284.2209,403.9869 1284.8459,403.4088 L1284.8459,406.1275 Z " fill="#000000"/><text fill="#000000" font-family="sans-serif" font-size="14" lengthAdjust="spacing" textLength="17.7529" x="1302.3772" y="405.3336">E3</text><line style="stroke:#181818;stroke-width:0.5;" x1="1216.76" x2="1373.2473" y1="416.4869" y2="416.4869"/><line style="stroke:#181818;stroke-width:0.5;" x1="1216.76" x2="1373.2473" y1="424.4869" y2="424.4869"/><text fill="#000000" font-family="sans-serif" font-size="14" lengthAdjust="spacing" textLength="146.4873" x="1221.76" y="441.482">landingPageServer.R</text><text fill="#000000" font-family="sans-serif" font-size="14" lengthAdjust="spacing" textLength="132.6377" x="1221.76" y="457.7789">(called in server.R)</text></g><!--class E4--><g class="entity" data-entity="E4" data-source-line="41" data-uid="ent0033" id="entity_E4"><rect fill="#F1F1F1" height="80.5938" rx="2.5" ry="2.5" style="stroke:#181818;stroke-width:0.5;" width="174.8047" x="1199.6" y="526.0769"/><ellipse cx="1273.8759" cy="542.0769" fill="#ADD1B2" rx="11" ry="11" style="stroke:#181818;stroke-width:1;"/><path d="M1276.8446,547.7175 Q1276.2665,548.0144 1275.6259,548.155 Q1274.9853,548.3113 1274.2821,548.3113 Q1271.7821,548.3113 1270.454,546.6706 Q1269.1415,545.0144 1269.1415,541.8894 Q1269.1415,538.7644 1270.454,537.1081 Q1271.7821,535.4519 1274.2821,535.4519 Q1274.9853,535.4519 1275.6259,535.6081 Q1276.2821,535.7644 1276.8446,536.0613 L1276.8446,538.78 Q1276.2196,538.2019 1275.6259,537.9363 Q1275.0321,537.655 1274.4071,537.655 Q1273.0634,537.655 1272.3759,538.7331 Q1271.6884,539.7956 1271.6884,541.8894 Q1271.6884,543.9831 1272.3759,545.0613 Q1273.0634,546.1238 1274.4071,546.1238 Q1275.0321,546.1238 1275.6259,545.8581 Q1276.2196,545.5769 1276.8446,544.9988 L1276.8446,547.7175 Z " fill="#000000"/><text fill="#000000" font-family="sans-serif" font-size="14" lengthAdjust="spacing" textLength="17.7529" x="1294.3759" y="546.9236">E4</text><line style="stroke:#181818;stroke-width:0.5;" x1="1200.6" x2="1373.4047" y1="558.0769" y2="558.0769"/><line style="stroke:#181818;stroke-width:0.5;" x1="1200.6" x2="1373.4047" y1="566.0769" y2="566.0769"/><text fill="#000000" font-family="sans-serif" font-size="14" lengthAdjust="spacing" textLength="162.8047" x="1205.6" y="583.072">landingPagePlotCode.R</text><text fill="#000000" font-family="sans-serif" font-size="14" lengthAdjust="spacing" textLength="106.0254" x="1205.6" y="599.3689">(sourced in E3)</text></g><!--class F1--><g class="entity" data-entity="F1" data-source-line="49" data-uid="ent0039" id="entity_F1"><rect fill="#F1F1F1" height="64.2969" rx="2.5" ry="2.5" style="stroke:#181818;stroke-width:0.5;" width="109.1729" x="1685.41" y="249.0369"/><ellipse cx="1727.5058" cy="265.0369" fill="#ADD1B2" rx="11" ry="11" style="stroke:#181818;stroke-width:1;"/><path d="M1730.4746,270.6775 Q1729.8964,270.9744 1729.2558,271.115 Q1728.6152,271.2713 1727.9121,271.2713 Q1725.4121,271.2713 1724.0839,269.6306 Q1722.7714,267.9744 1722.7714,264.8494 Q1722.7714,261.7244 1724.0839,260.0681 Q1725.4121,258.4119 1727.9121,258.4119 Q1728.6152,258.4119 1729.2558,258.5681 Q1729.9121,258.7244 1730.4746,259.0213 L1730.4746,261.74 Q1729.8496,261.1619 1729.2558,260.8963 Q1728.6621,260.615 1728.0371,260.615 Q1726.6933,260.615 1726.0058,261.6931 Q1725.3183,262.7556 1725.3183,264.8494 Q1725.3183,266.9431 1726.0058,268.0213 Q1726.6933,269.0838 1728.0371,269.0838 Q1728.6621,269.0838 1729.2558,268.8181 Q1729.8496,268.5369 1730.4746,267.9588 L1730.4746,270.6775 Z " fill="#000000"/><text fill="#000000" font-family="sans-serif" font-size="14" lengthAdjust="spacing" textLength="16.96" x="1747.5271" y="269.8836">F1</text><line style="stroke:#181818;stroke-width:0.5;" x1="1686.41" x2="1793.5829" y1="281.0369" y2="281.0369"/><text fill="#000000" font-family="sans-serif" font-size="14" lengthAdjust="spacing" textLength="97.1729" x="1691.41" y="298.032">Page Modules</text><line style="stroke:#181818;stroke-width:0.5;" x1="1686.41" x2="1793.5829" y1="305.3338" y2="305.3338"/></g><!--class F2--><g class="entity" data-entity="F2" data-source-line="50" data-uid="ent0040" id="entity_F2"><rect fill="#F1F1F1" height="80.5938" rx="2.5" ry="2.5" style="stroke:#181818;stroke-width:0.5;" width="192.5371" x="1429.73" y="384.4869"/><ellipse cx="1513.2686" cy="400.4869" fill="#ADD1B2" rx="11" ry="11" style="stroke:#181818;stroke-width:1;"/><path d="M1516.2373,406.1275 Q1515.6592,406.4244 1515.0186,406.565 Q1514.3779,406.7213 1513.6748,406.7213 Q1511.1748,406.7213 1509.8467,405.0806 Q1508.5342,403.4244 1508.5342,400.2994 Q1508.5342,397.1744 1509.8467,395.5181 Q1511.1748,393.8619 1513.6748,393.8619 Q1514.3779,393.8619 1515.0186,394.0181 Q1515.6748,394.1744 1516.2373,394.4713 L1516.2373,397.19 Q1515.6123,396.6119 1515.0186,396.3463 Q1514.4248,396.065 1513.7998,396.065 Q1512.4561,396.065 1511.7686,397.1431 Q1511.0811,398.2056 1511.0811,400.2994 Q1511.0811,402.3931 1511.7686,403.4713 Q1512.4561,404.5338 1513.7998,404.5338 Q1514.4248,404.5338 1515.0186,404.2681 Q1515.6123,403.9869 1516.2373,403.4088 L1516.2373,406.1275 Z " fill="#000000"/><text fill="#000000" font-family="sans-serif" font-size="14" lengthAdjust="spacing" textLength="16.96" x="1533.7686" y="405.3336">F2</text><line style="stroke:#181818;stroke-width:0.5;" x1="1430.73" x2="1621.2671" y1="416.4869" y2="416.4869"/><line style="stroke:#181818;stroke-width:0.5;" x1="1430.73" x2="1621.2671" y1="424.4869" y2="424.4869"/><line style="stroke:#181818;stroke-width:1;" x1="1435.73" x2="1435.73" y1="436.6353" y2="436.6353"/><text fill="#000000" font-family="sans-serif" font-size="14" lengthAdjust="spacing" textLength="180.5371" x="1435.73" y="440.982">&gt;dashboardSideBarUI.R&lt;</text><line style="stroke:#181818;stroke-width:1;" x1="1616.2671" x2="1616.2671" y1="436.6353" y2="436.6353"/><text fill="#000000" font-family="sans-serif" font-size="14" lengthAdjust="spacing" textLength="91.1025" x="1435.73" y="457.7789">(called in F3)</text></g><!--class F3--><g class="entity" data-entity="F3" data-source-line="51" data-uid="ent0041" id="entity_F3"><rect fill="#F1F1F1" height="80.5938" rx="2.5" ry="2.5" style="stroke:#181818;stroke-width:0.5;" width="165.8359" x="1657.08" y="384.4869"/><ellipse cx="1727.268" cy="400.4869" fill="#ADD1B2" rx="11" ry="11" style="stroke:#181818;stroke-width:1;"/><path d="M1730.2367,406.1275 Q1729.6586,406.4244 1729.018,406.565 Q1728.3774,406.7213 1727.6742,406.7213 Q1725.1742,406.7213 1723.8461,405.0806 Q1722.5336,403.4244 1722.5336,400.2994 Q1722.5336,397.1744 1723.8461,395.5181 Q1725.1742,393.8619 1727.6742,393.8619 Q1728.3774,393.8619 1729.018,394.0181 Q1729.6742,394.1744 1730.2367,394.4713 L1730.2367,397.19 Q1729.6117,396.6119 1729.018,396.3463 Q1728.4242,396.065 1727.7992,396.065 Q1726.4555,396.065 1725.768,397.1431 Q1725.0805,398.2056 1725.0805,400.2994 Q1725.0805,402.3931 1725.768,403.4713 Q1726.4555,404.5338 1727.7992,404.5338 Q1728.4242,404.5338 1729.018,404.2681 Q1729.6117,403.9869 1730.2367,403.4088 L1730.2367,406.1275 Z " fill="#000000"/><text fill="#000000" font-family="sans-serif" font-size="14" lengthAdjust="spacing" textLength="16.96" x="1747.768" y="405.3336">F3</text><line style="stroke:#181818;stroke-width:0.5;" x1="1658.08" x2="1821.9159" y1="416.4869" y2="416.4869"/><line style="stroke:#181818;stroke-width:0.5;" x1="1658.08" x2="1821.9159" y1="424.4869" y2="424.4869"/><text fill="#000000" font-family="sans-serif" font-size="14" lengthAdjust="spacing" textLength="153.8359" x="1663.08" y="441.482">dashboardHeaderUI.R</text><text fill="#000000" font-family="sans-serif" font-size="14" lengthAdjust="spacing" textLength="132.6377" x="1663.08" y="457.7789">(called in server.R)</text></g><!--class F4--><g class="entity" data-entity="F4" data-source-line="52" data-uid="ent0042" id="entity_F4"><rect fill="#F1F1F1" height="80.5938" rx="2.5" ry="2.5" style="stroke:#181818;stroke-width:0.5;" width="146.3945" x="1857.8" y="384.4869"/><ellipse cx="1918.2673" cy="400.4869" fill="#ADD1B2" rx="11" ry="11" style="stroke:#181818;stroke-width:1;"/><path d="M1921.236,406.1275 Q1920.6579,406.4244 1920.0173,406.565 Q1919.3767,406.7213 1918.6735,406.7213 Q1916.1735,406.7213 1914.8454,405.0806 Q1913.5329,403.4244 1913.5329,400.2994 Q1913.5329,397.1744 1914.8454,395.5181 Q1916.1735,393.8619 1918.6735,393.8619 Q1919.3767,393.8619 1920.0173,394.0181 Q1920.6735,394.1744 1921.236,394.4713 L1921.236,397.19 Q1920.611,396.6119 1920.0173,396.3463 Q1919.4235,396.065 1918.7985,396.065 Q1917.4548,396.065 1916.7673,397.1431 Q1916.0798,398.2056 1916.0798,400.2994 Q1916.0798,402.3931 1916.7673,403.4713 Q1917.4548,404.5338 1918.7985,404.5338 Q1919.4235,404.5338 1920.0173,404.2681 Q1920.611,403.9869 1921.236,403.4088 L1921.236,406.1275 Z " fill="#000000"/><text fill="#000000" font-family="sans-serif" font-size="14" lengthAdjust="spacing" textLength="16.96" x="1938.7673" y="405.3336">F4</text><line style="stroke:#181818;stroke-width:0.5;" x1="1858.8" x2="2003.1945" y1="416.4869" y2="416.4869"/><line style="stroke:#181818;stroke-width:0.5;" x1="1858.8" x2="2003.1945" y1="424.4869" y2="424.4869"/><text fill="#000000" font-family="sans-serif" font-size="14" lengthAdjust="spacing" textLength="134.3945" x="1863.8" y="441.482">dashboardServer.R</text><text fill="#000000" font-family="sans-serif" font-size="14" lengthAdjust="spacing" textLength="132.6377" x="1863.8" y="457.7789">(called in server.R)</text></g><!--class F5--><g class="entity" data-entity="F5" data-source-line="53" data-uid="ent0043" id="entity_F5"><rect fill="#F1F1F1" height="80.5938" rx="2.5" ry="2.5" style="stroke:#181818;stroke-width:0.5;" width="150.2021" x="2038.9" y="384.4869"/><ellipse cx="2101.2711" cy="400.4869" fill="#ADD1B2" rx="11" ry="11" style="stroke:#181818;stroke-width:1;"/><path d="M2104.2398,406.1275 Q2103.6617,406.4244 2103.0211,406.565 Q2102.3805,406.7213 2101.6773,406.7213 Q2099.1773,406.7213 2097.8492,405.0806 Q2096.5367,403.4244 2096.5367,400.2994 Q2096.5367,397.1744 2097.8492,395.5181 Q2099.1773,393.8619 2101.6773,393.8619 Q2102.3805,393.8619 2103.0211,394.0181 Q2103.6773,394.1744 2104.2398,394.4713 L2104.2398,397.19 Q2103.6148,396.6119 2103.0211,396.3463 Q2102.4273,396.065 2101.8023,396.065 Q2100.4586,396.065 2099.7711,397.1431 Q2099.0836,398.2056 2099.0836,400.2994 Q2099.0836,402.3931 2099.7711,403.4713 Q2100.4586,404.5338 2101.8023,404.5338 Q2102.4273,404.5338 2103.0211,404.2681 Q2103.6148,403.9869 2104.2398,403.4088 L2104.2398,406.1275 Z " fill="#000000"/><text fill="#000000" font-family="sans-serif" font-size="14" lengthAdjust="spacing" textLength="16.96" x="2121.7711" y="405.3336">F5</text><line style="stroke:#181818;stroke-width:0.5;" x1="2039.9" x2="2188.1021" y1="416.4869" y2="416.4869"/><line style="stroke:#181818;stroke-width:0.5;" x1="2039.9" x2="2188.1021" y1="424.4869" y2="424.4869"/><text fill="#000000" font-family="sans-serif" font-size="14" lengthAdjust="spacing" textLength="138.2021" x="2044.9" y="441.482">dashboardBodyUI.R</text><text fill="#000000" font-family="sans-serif" font-size="14" lengthAdjust="spacing" textLength="113.5449" x="2044.9" y="457.7789">(rendered in F4)</text></g><!--class F6--><g class="entity" data-entity="F6" data-source-line="54" data-uid="ent0044" id="entity_F6"><rect fill="#F1F1F1" height="80.5938" rx="2.5" ry="2.5" style="stroke:#181818;stroke-width:0.5;" width="164.6055" x="1604.7" y="526.0769"/><ellipse cx="1674.2728" cy="542.0769" fill="#ADD1B2" rx="11" ry="11" style="stroke:#181818;stroke-width:1;"/><path d="M1677.2415,547.7175 Q1676.6634,548.0144 1676.0228,548.155 Q1675.3821,548.3113 1674.679,548.3113 Q1672.179,548.3113 1670.8509,546.6706 Q1669.5384,545.0144 1669.5384,541.8894 Q1669.5384,538.7644 1670.8509,537.1081 Q1672.179,535.4519 1674.679,535.4519 Q1675.3821,535.4519 1676.0228,535.6081 Q1676.679,535.7644 1677.2415,536.0613 L1677.2415,538.78 Q1676.6165,538.2019 1676.0228,537.9363 Q1675.429,537.655 1674.804,537.655 Q1673.4603,537.655 1672.7728,538.7331 Q1672.0853,539.7956 1672.0853,541.8894 Q1672.0853,543.9831 1672.7728,545.0613 Q1673.4603,546.1238 1674.804,546.1238 Q1675.429,546.1238 1676.0228,545.8581 Q1676.6165,545.5769 1677.2415,544.9988 L1677.2415,547.7175 Z " fill="#000000"/><text fill="#000000" font-family="sans-serif" font-size="14" lengthAdjust="spacing" textLength="16.96" x="1694.7728" y="546.9236">F6</text><line style="stroke:#181818;stroke-width:0.5;" x1="1605.7" x2="1768.3055" y1="558.0769" y2="558.0769"/><line style="stroke:#181818;stroke-width:0.5;" x1="1605.7" x2="1768.3055" y1="566.0769" y2="566.0769"/><text fill="#000000" font-family="sans-serif" font-size="14" lengthAdjust="spacing" textLength="152.6055" x="1610.7" y="583.072">DashboardPlotCode.R</text><text fill="#000000" font-family="sans-serif" font-size="14" lengthAdjust="spacing" textLength="105.2324" x="1610.7" y="599.3689">(sourced in F4)</text></g><!--class F7--><g class="entity" data-entity="F7" data-source-line="55" data-uid="ent0045" id="entity_F7"><rect fill="#F1F1F1" height="80.5938" rx="2.5" ry="2.5" style="stroke:#181818;stroke-width:0.5;" width="178.1748" x="1803.91" y="526.0769"/><ellipse cx="1880.2674" cy="542.0769" fill="#ADD1B2" rx="11" ry="11" style="stroke:#181818;stroke-width:1;"/><path d="M1883.2362,547.7175 Q1882.658,548.0144 1882.0174,548.155 Q1881.3768,548.3113 1880.6737,548.3113 Q1878.1737,548.3113 1876.8455,546.6706 Q1875.533,545.0144 1875.533,541.8894 Q1875.533,538.7644 1876.8455,537.1081 Q1878.1737,535.4519 1880.6737,535.4519 Q1881.3768,535.4519 1882.0174,535.6081 Q1882.6737,535.7644 1883.2362,536.0613 L1883.2362,538.78 Q1882.6112,538.2019 1882.0174,537.9363 Q1881.4237,537.655 1880.7987,537.655 Q1879.4549,537.655 1878.7674,538.7331 Q1878.0799,539.7956 1878.0799,541.8894 Q1878.0799,543.9831 1878.7674,545.0613 Q1879.4549,546.1238 1880.7987,546.1238 Q1881.4237,546.1238 1882.0174,545.8581 Q1882.6112,545.5769 1883.2362,544.9988 L1883.2362,547.7175 Z " fill="#000000"/><text fill="#000000" font-family="sans-serif" font-size="14" lengthAdjust="spacing" textLength="16.96" x="1900.7674" y="546.9236">F7</text><line style="stroke:#181818;stroke-width:0.5;" x1="1804.91" x2="1981.0848" y1="558.0769" y2="558.0769"/><line style="stroke:#181818;stroke-width:0.5;" x1="1804.91" x2="1981.0848" y1="566.0769" y2="566.0769"/><text fill="#000000" font-family="sans-serif" font-size="14" lengthAdjust="spacing" textLength="166.1748" x="1809.91" y="583.072">SpeciesAlignmentPlot.R</text><text fill="#000000" font-family="sans-serif" font-size="14" lengthAdjust="spacing" textLength="105.2324" x="1809.91" y="599.3689">(sourced in F4)</text></g><!--class F8--><g class="entity" data-entity="F8" data-source-line="56" data-uid="ent0046" id="entity_F8"><rect fill="#F1F1F1" height="80.5938" rx="2.5" ry="2.5" style="stroke:#181818;stroke-width:0.5;" width="172.5762" x="2016.71" y="526.0769"/><ellipse cx="2090.2681" cy="542.0769" fill="#ADD1B2" rx="11" ry="11" style="stroke:#181818;stroke-width:1;"/><path d="M2093.2369,547.7175 Q2092.6587,548.0144 2092.0181,548.155 Q2091.3775,548.3113 2090.6744,548.3113 Q2088.1744,548.3113 2086.8462,546.6706 Q2085.5337,545.0144 2085.5337,541.8894 Q2085.5337,538.7644 2086.8462,537.1081 Q2088.1744,535.4519 2090.6744,535.4519 Q2091.3775,535.4519 2092.0181,535.6081 Q2092.6744,535.7644 2093.2369,536.0613 L2093.2369,538.78 Q2092.6119,538.2019 2092.0181,537.9363 Q2091.4244,537.655 2090.7994,537.655 Q2089.4556,537.655 2088.7681,538.7331 Q2088.0806,539.7956 2088.0806,541.8894 Q2088.0806,543.9831 2088.7681,545.0613 Q2089.4556,546.1238 2090.7994,546.1238 Q2091.4244,546.1238 2092.0181,545.8581 Q2092.6119,545.5769 2093.2369,544.9988 L2093.2369,547.7175 Z " fill="#000000"/><text fill="#000000" font-family="sans-serif" font-size="14" lengthAdjust="spacing" textLength="16.96" x="2110.7681" y="546.9236">F8</text><line style="stroke:#181818;stroke-width:0.5;" x1="2017.71" x2="2188.2862" y1="558.0769" y2="558.0769"/><line style="stroke:#181818;stroke-width:0.5;" x1="2017.71" x2="2188.2862" y1="566.0769" y2="566.0769"/><text fill="#000000" font-family="sans-serif" font-size="14" lengthAdjust="spacing" textLength="160.5762" x="2022.71" y="583.072">userSelfEmailUpdate.R</text><text fill="#000000" font-family="sans-serif" font-size="14" lengthAdjust="spacing" textLength="105.2324" x="2022.71" y="599.3689">(sourced in F4)</text></g><!--class G1--><g class="entity" data-entity="G1" data-source-line="68" data-uid="ent0056" id="entity_G1"><rect fill="#F1F1F1" height="80.5938" rx="2.5" ry="2.5" style="stroke:#181818;stroke-width:0.5;" width="234.667" x="2244.67" y="240.8869"/><ellipse cx="2347.8756" cy="256.8869" fill="#ADD1B2" rx="11" ry="11" style="stroke:#181818;stroke-width:1;"/><path d="M2350.8443,262.5275 Q2350.2662,262.8244 2349.6256,262.965 Q2348.9849,263.1213 2348.2818,263.1213 Q2345.7818,263.1213 2344.4537,261.4806 Q2343.1412,259.8244 2343.1412,256.6994 Q2343.1412,253.5744 2344.4537,251.9181 Q2345.7818,250.2619 2348.2818,250.2619 Q2348.9849,250.2619 2349.6256,250.4181 Q2350.2818,250.5744 2350.8443,250.8713 L2350.8443,253.59 Q2350.2193,253.0119 2349.6256,252.7463 Q2349.0318,252.465 2348.4068,252.465 Q2347.0631,252.465 2346.3756,253.5431 Q2345.6881,254.6056 2345.6881,256.6994 Q2345.6881,258.7931 2346.3756,259.8713 Q2347.0631,260.9338 2348.4068,260.9338 Q2349.0318,260.9338 2349.6256,260.6681 Q2350.2193,260.3869 2350.8443,259.8088 L2350.8443,262.5275 Z " fill="#000000"/><text fill="#000000" font-family="sans-serif" font-size="14" lengthAdjust="spacing" textLength="19.7559" x="2368.3756" y="261.7336">G1</text><line style="stroke:#181818;stroke-width:0.5;" x1="2245.67" x2="2478.337" y1="272.8869" y2="272.8869"/><line style="stroke:#181818;stroke-width:0.5;" x1="2245.67" x2="2478.337" y1="280.8869" y2="280.8869"/><text fill="#000000" font-family="sans-serif" font-size="14" lengthAdjust="spacing" textLength="93.5635" x="2250.67" y="297.882">AdminPage.R</text><text fill="#000000" font-family="sans-serif" font-size="14" lengthAdjust="spacing" textLength="222.667" x="2250.67" y="314.1789">(sourced in dashboardServer.R)</text></g><!--link A1 to A2--><g class="link" data-entity-1="A1" data-entity-2="A2" data-source-line="13" data-uid="lnk11" id="link_A1_A2"><path codeLine="13" d="M136,159.2969 C136,186.8769 136,217.1369 136,242.7269" fill="none" id="A1-to-A2" style="stroke:#181818;stroke-width:1;"/><polygon fill="#181818" points="136,248.7269,140,239.7269,136,243.7269,132,239.7269,136,248.7269" style="stroke:#181818;stroke-width:1;"/></g><!--link A2 to A4--><g class="link" data-entity-1="A2" data-entity-2="A4" data-source-line="14" data-uid="lnk12" id="link_A2_A4"><path codeLine="14" d="M136,313.6169 C136,334.3869 136,355.7969 136,378.0769" fill="none" id="A2-to-A4" style="stroke:#181818;stroke-width:1;"/><polygon fill="#181818" points="136,384.0769,140,375.0769,136,379.0769,132,375.0769,136,384.0769" style="stroke:#181818;stroke-width:1;"/></g><!--link A3 to A5--><g class="link" data-entity-1="A3" data-entity-2="A5" data-source-line="15" data-uid="lnk13" id="link_A3_A5"><path codeLine="15" d="M309.69,465.4069 C279.56,484.2769 248.7065,503.5945 218.5465,522.4645" fill="none" id="A3-to-A5" style="stroke:#181818;stroke-width:1;"/><polygon fill="#181818" points="213.46,525.6469,223.2113,524.2642,217.6987,522.9949,218.9681,517.4823,213.46,525.6469" style="stroke:#181818;stroke-width:1;"/></g><!--link A4 to A5--><g class="link" data-entity-1="A4" data-entity-2="A5" data-source-line="16" data-uid="lnk14" id="link_A4_A5"><path codeLine="16" d="M139.97,465.4069 C141.87,484.2769 143.5189,500.8071 145.4189,519.6771" fill="none" id="A4-to-A5" style="stroke:#181818;stroke-width:1;"/><polygon fill="#181818" points="146.02,525.6469,149.0982,516.2914,145.5191,520.672,141.1385,517.0929,146.02,525.6469" style="stroke:#181818;stroke-width:1;"/></g><!--link A5 to B2--><g class="link" data-entity-1="A5" data-entity-2="B2" data-source-line="17" data-uid="lnk15" id="link_A5_B2"><path codeLine="17" d="M185.83,607.1069 C209.91,633.7969 237.1713,664.0316 259.5413,688.8316" fill="none" id="A5-to-B2" style="stroke:#181818;stroke-width:1;"/><polygon fill="#181818" points="263.56,693.2869,260.5021,683.9248,260.211,689.5741,254.5617,689.2831,263.56,693.2869" style="stroke:#181818;stroke-width:1;"/></g><!--link B3 to B2--><g class="link" data-entity-1="B3" data-entity-2="B2" data-source-line="18" data-uid="lnk16" id="link_B3_B2"><path codeLine="18" d="M401.91,607.1069 C376.98,633.7969 348.6842,664.1008 325.5342,688.9008" fill="none" id="B3-to-B2" style="stroke:#181818;stroke-width:1;"/><polygon fill="#181818" points="321.44,693.2869,330.5054,689.4373,324.8519,689.6318,324.6573,683.9783,321.44,693.2869" style="stroke:#181818;stroke-width:1;"/></g><!--link B2 to C1--><g class="link" data-entity-1="B2" data-entity-2="C1" data-source-line="22" data-uid="lnk17" id="link_B2_C1"><path codeLine="22" d="M292,758.4269 C292,781.2269 292,805.8669 292,828.6369" fill="none" id="B2-to-C1" style="stroke:#181818;stroke-width:1;"/><polygon fill="#181818" points="292,834.6369,296,825.6369,292,829.6369,288,825.6369,292,834.6369" style="stroke:#181818;stroke-width:1;"/><text fill="#000000" font-family="sans-serif" font-size="13" lengthAdjust="spacing" textLength="203.3535" x="293" y="801.0338">Destination Server (Read-Only)</text></g><!--link D1 to D2--><g class="link" data-entity-1="D1" data-entity-2="D2" data-source-line="31" data-uid="lnk24" id="link_D1_D2"><path codeLine="31" d="M900.18,141.2969 C856.65,153.6969 806.08,172.0269 765,197.8869 C746.96,209.2469 734.0413,221.0339 720.4413,236.0939" fill="none" id="D1-to-D2" style="stroke:#181818;stroke-width:1;"/><polygon fill="#181818" points="716.42,240.5469,725.4206,236.5482,719.7711,236.836,719.4833,231.1865,716.42,240.5469" style="stroke:#181818;stroke-width:1;"/></g><!--link D1 to D3--><g class="link" data-entity-1="D1" data-entity-2="D3" data-source-line="32" data-uid="lnk25" id="link_D1_D3"><path codeLine="32" d="M946.19,151.1269 C926.57,164.3069 904.71,180.5869 887,197.8869 C871.48,213.0569 860.2818,227.5007 849.2618,243.6507" fill="none" id="D1-to-D3" style="stroke:#181818;stroke-width:1;"/><polygon fill="#181818" points="845.88,248.6069,854.2568,243.4272,848.6982,244.4768,847.6487,238.9181,845.88,248.6069" style="stroke:#181818;stroke-width:1;"/></g><!--link D1 to D4--><g class="link" data-entity-1="D1" data-entity-2="D4" data-source-line="33" data-uid="lnk26" id="link_D1_D4"><path codeLine="33" d="M985.31,150.9369 C973.9,179.1469 959.4614,214.8253 948.0214,243.0853" fill="none" id="D1-to-D4" style="stroke:#181818;stroke-width:1;"/><polygon fill="#181818" points="945.77,248.6469,952.8548,241.8054,947.6462,244.0122,945.4394,238.8036,945.77,248.6469" style="stroke:#181818;stroke-width:1;"/></g><!--link D1 to D5--><g class="link" data-entity-1="D1" data-entity-2="D5" data-source-line="34" data-uid="lnk27" id="link_D1_D5"><path codeLine="34" d="M1003.75,151.1769 C1010.45,197.5269 1016.3,285.0269 979,345.4869 C969.49,360.8969 960.6302,370.2729 945.6002,380.7629" fill="none" id="D1-to-D5" style="stroke:#181818;stroke-width:1;"/><polygon fill="#181818" points="940.68,384.1969,950.3495,382.326,944.7801,381.3352,945.7709,375.7658,940.68,384.1969" style="stroke:#181818;stroke-width:1;"/></g><!--link D3 to D5--><g class="link" data-entity-1="D3" data-entity-2="D5" data-source-line="35" data-uid="lnk28" id="link_D3_D5"><path codeLine="35" d="M831.55,313.6169 C835.22,334.3869 839.0177,355.8881 842.9477,378.1681" fill="none" id="D3-to-D5" style="stroke:#181818;stroke-width:1;"/><polygon fill="#181818" points="843.99,384.0769,846.3658,374.5189,843.1215,379.1529,838.4874,375.9085,843.99,384.0769" style="stroke:#181818;stroke-width:1;"/></g><!--link D1 to E1--><g class="link" data-entity-1="D1" data-entity-2="E1" data-source-line="42" data-uid="lnk34" id="link_D1_E1"><path codeLine="42" d="M1019.08,150.9369 C1038.05,179.1469 1062.4311,215.4084 1081.4411,243.6684" fill="none" id="D1-to-E1" style="stroke:#181818;stroke-width:1;"/><polygon fill="#181818" points="1084.79,248.6469,1083.0856,238.9466,1081.9992,244.4982,1076.4477,243.4118,1084.79,248.6469" style="stroke:#181818;stroke-width:1;"/></g><!--link E1 to E2--><g class="link" data-entity-1="E1" data-entity-2="E2" data-source-line="43" data-uid="lnk35" id="link_E1_E2"><path codeLine="43" d="M1106,313.6169 C1106,334.3869 1106,355.7969 1106,378.0769" fill="none" id="E1-to-E2" style="stroke:#181818;stroke-width:1;"/><polygon fill="#181818" points="1106,384.0769,1110,375.0769,1106,379.0769,1102,375.0769,1106,384.0769" style="stroke:#181818;stroke-width:1;"/></g><!--link E1 to E3--><g class="link" data-entity-1="E1" data-entity-2="E3" data-source-line="44" data-uid="lnk36" id="link_E1_E3"><path codeLine="44" d="M1147.95,313.6169 C1175.68,334.3869 1207.4581,358.1995 1237.1981,380.4795" fill="none" id="E1-to-E3" style="stroke:#181818;stroke-width:1;"/><polygon fill="#181818" points="1242,384.0769,1237.1954,375.4795,1237.9984,381.079,1232.3988,381.882,1242,384.0769" style="stroke:#181818;stroke-width:1;"/></g><!--link E3 to E4--><g class="link" data-entity-1="E3" data-entity-2="E4" data-source-line="45" data-uid="lnk37" id="link_E3_E4"><path codeLine="45" d="M1292.73,465.4069 C1291.65,484.2769 1290.7028,500.7867 1289.6228,519.6567" fill="none" id="E3-to-E4" style="stroke:#181818;stroke-width:1;"/><polygon fill="#181818" points="1289.28,525.6469,1293.7877,516.8901,1289.5657,520.655,1285.8008,516.433,1289.28,525.6469" style="stroke:#181818;stroke-width:1;"/></g><!--link D1 to F1--><g class="link" data-entity-1="D1" data-entity-2="F1" data-source-line="57" data-uid="lnk47" id="link_D1_F1"><path codeLine="57" d="M1095.65,138.1469 C1175.08,153.4669 1289.97,176.1469 1390,197.8869 C1494.61,220.6269 1610.3111,248.4142 1679.1411,265.2142" fill="none" id="D1-to-F1" style="stroke:#181818;stroke-width:1;"/><polygon fill="#181818" points="1684.97,266.6369,1677.1751,260.6169,1680.1126,265.4513,1675.2782,268.3887,1684.97,266.6369" style="stroke:#181818;stroke-width:1;"/></g><!--link F1 to F2--><g class="link" data-entity-1="F1" data-entity-2="F2" data-source-line="58" data-uid="lnk48" id="link_F1_F2"><path codeLine="58" d="M1692.24,313.7869 C1660.83,334.5769 1624.4737,358.6259 1590.8637,380.8659" fill="none" id="F1-to-F2" style="stroke:#181818;stroke-width:1;"/><polygon fill="#181818" points="1585.86,384.1769,1595.5729,382.5462,1590.0298,381.4177,1591.1583,375.8746,1585.86,384.1769" style="stroke:#181818;stroke-width:1;"/></g><!--link F1 to F3--><g class="link" data-entity-1="F1" data-entity-2="F3" data-source-line="59" data-uid="lnk49" id="link_F1_F3"><path codeLine="59" d="M1740,313.6169 C1740,334.3869 1740,355.7969 1740,378.0769" fill="none" id="F1-to-F3" style="stroke:#181818;stroke-width:1;"/><polygon fill="#181818" points="1740,384.0769,1744,375.0769,1740,379.0769,1736,375.0769,1740,384.0769" style="stroke:#181818;stroke-width:1;"/></g><!--link F1 to F4--><g class="link" data-entity-1="F1" data-entity-2="F4" data-source-line="60" data-uid="lnk50" id="link_F1_F4"><path codeLine="60" d="M1782.39,313.6169 C1810.41,334.3869 1842.5702,358.2234 1872.6202,380.5034" fill="none" id="F1-to-F4" style="stroke:#181818;stroke-width:1;"/><polygon fill="#181818" points="1877.44,384.0769,1872.5927,375.5034,1873.4235,381.0989,1867.828,381.9298,1877.44,384.0769" style="stroke:#181818;stroke-width:1;"/></g><!--link F1 to F5--><g class="link" data-entity-1="F1" data-entity-2="F5" data-source-line="61" data-uid="lnk51" id="link_F1_F5"><path codeLine="61" d="M1794.93,301.0969 C1852.01,320.9769 1943.76,353.6169 2022,384.4869 C2027.41,386.6169 2027.4299,386.5874 2033.0299,388.8874" fill="none" id="F1-to-F5" style="stroke:#181818;stroke-width:1;"/><polygon fill="#181818" points="2038.58,391.1669,2031.7745,384.0475,2033.9549,389.2673,2028.7351,391.4477,2038.58,391.1669" style="stroke:#181818;stroke-width:1;"/></g><!--link F4 to F6--><g class="link" data-entity-1="F4" data-entity-2="F6" data-source-line="62" data-uid="lnk52" id="link_F4_F6"><path codeLine="62" d="M1861.73,465.4069 C1828.76,484.2769 1794.6382,503.7978 1761.6482,522.6678" fill="none" id="F4-to-F6" style="stroke:#181818;stroke-width:1;"/><polygon fill="#181818" points="1756.44,525.6469,1766.2383,524.6504,1760.7802,523.1643,1762.2663,517.7062,1756.44,525.6469" style="stroke:#181818;stroke-width:1;"/></g><!--link F4 to F7--><g class="link" data-entity-1="F4" data-entity-2="F7" data-source-line="63" data-uid="lnk53" id="link_F4_F7"><path codeLine="63" d="M1920.21,465.4069 C1915.08,484.2769 1910.5269,500.9878 1905.3869,519.8578" fill="none" id="F4-to-F7" style="stroke:#181818;stroke-width:1;"/><polygon fill="#181818" points="1903.81,525.6469,1910.0347,518.0145,1905.1241,520.8226,1902.3159,515.912,1903.81,525.6469" style="stroke:#181818;stroke-width:1;"/></g><!--link F4 to F8--><g class="link" data-entity-1="F4" data-entity-2="F8" data-source-line="64" data-uid="lnk54" id="link_F4_F8"><path codeLine="64" d="M1979.83,465.4069 C2003.07,484.2769 2026.1305,502.9968 2049.3905,521.8668" fill="none" id="F4-to-F8" style="stroke:#181818;stroke-width:1;"/><polygon fill="#181818" points="2054.05,525.6469,2049.5808,516.8704,2050.1671,522.4968,2044.5407,523.0831,2054.05,525.6469" style="stroke:#181818;stroke-width:1;"/></g><!--link D1 to G1--><g class="link" data-entity-1="D1" data-entity-2="G1" data-source-line="69" data-uid="lnk57" id="link_D1_G1"><path codeLine="69" d="M1095.67,120.7169 C1344.48,124.4069 1997.15,139.5169 2205,197.8869 C2238.33,207.2569 2267.4907,221.2823 2295.5307,237.4323" fill="none" id="D1-to-G1" style="stroke:#181818;stroke-width:1;"/><polygon fill="#181818" points="2300.73,240.4269,2294.9275,232.4688,2296.3973,237.9314,2290.9347,239.4012,2300.73,240.4269" style="stroke:#181818;stroke-width:1;"/></g><!--SRC=[ZLHDJnin4BtdLrYSu92b-G9KLPL8mgP8e8Qat90gPpri38wzjRrGLF7VE_uY6nPezvBCs6_Up9lnM6u5a2crbCnv1O9B8BbGZvrEHOjxMWBPkmIhUM78ZDerQ39H3CmU-TCX-9tso6TIQFeeG2_XLxoQcVMDtD_KnX9TIq8DCGz5jxHTXWGFe9yE0hYFuD97HMmDik2ot8O8TmPRWgl99Xmk2yqh6rWS0QkBUxQAeKY12KQ28OBReGlpWC3pJQMq1KQiIW5MJ-Hq5A4ZX3htT1p2FiBgXJymHpseP8JxM8GAGQuc9DuAWSQkoDaFHirwfQXcAOb06Qwu6kkAKGi_AwtkZAMsZYJNtkrod0RjW1rUIvR-1uw9xu8jGIhaXcBzQP3TqT-PqcKdjQdR_Og29zszDKmAUskK96jQ8s-D-odFQ7MUEvrnYEAvfs0ibzHo9L5lZQcH_GLGrlqk1JPxEqlBDPSeSbMb0PewEAsgRE6ZxHkFHkkGN9zdYr3Vr6dOox2pyfQNSzJTP8iRsSy8brLjSouWMuIRJieBlj9KSp39wSQ0rdQTRDTRP1Eg_DBjeiWB4F10fIKCLdLfdDeN2dzlbM2W3pefKvVXjBzZ3NQiuOurIYb5ovjRALxcCZo_6KZGr0ta7C-JFkuxSnev9xbKh1PWjYVzM0aE8GPoTvngeQe2nn6ZSTbGqeESHWt4Cag-0qbzQC26kx2vKDRj0WyqgjP5G9uDjfYen5clMOltz5kUGJD1xmbgFh_I3Jk3BDWYV6bfDKtJwsffbx-hNHwrUtcPIyvWJFLR0kQDcd8dtmle6quvUCm_vCk7JTX_QfwFcg2nOa-HIGFk01sJ6pO0H-ur9i1xBTf17BiTMK61x-LKy59kG5e7_11quZQMSNjRt9vjA1TXJts4YREGzvgzyPv-opDeUOOjpwWfhVSSjJp7BS_9cpDroZQOxKH9eyJE-CpS-FXJDqEloskrirNjh1Vvdly2]--></g></svg>